<svg xmlns="http://www.w3.org/2000/svg" xmlns:xlink="http://www.w3.org/1999/xlink" width="2000" zoomAndPan="magnify" viewBox="0 0 1500 1499.999933" height="2000" preserveAspectRatio="xMidYMid meet" version="1.0"><defs><g/><clipPath id="3f3a0dcf04"><path d="M 912.496094 650.472656 L 1083.351562 650.472656 L 1083.351562 821.328125 L 912.496094 821.328125 Z M 912.496094 650.472656 " clip-rule="nonzero"/></clipPath><clipPath id="ea51efb956"><path d="M 997.921875 650.472656 C 950.742188 650.472656 912.496094 688.71875 912.496094 735.898438 C 912.496094 783.082031 950.742188 821.328125 997.921875 821.328125 C 1045.105469 821.328125 1083.351562 783.082031 1083.351562 735.898438 C 1083.351562 688.71875 1045.105469 650.472656 997.921875 650.472656 Z M 997.921875 650.472656 " clip-rule="nonzero"/></clipPath><clipPath id="8c213f0767"><path d="M 0.496094 0.472656 L 171.351562 0.472656 L 171.351562 171.328125 L 0.496094 171.328125 Z M 0.496094 0.472656 " clip-rule="nonzero"/></clipPath><clipPath id="7647713b7c"><path d="M 85.921875 0.472656 C 38.742188 0.472656 0.496094 38.71875 0.496094 85.898438 C 0.496094 133.082031 38.742188 171.328125 85.921875 171.328125 C 133.105469 171.328125 171.351562 133.082031 171.351562 85.898438 C 171.351562 38.71875 133.105469 0.472656 85.921875 0.472656 Z M 85.921875 0.472656 " clip-rule="nonzero"/></clipPath><clipPath id="19a0b88f48"><rect x="0" width="172" y="0" height="172"/></clipPath><clipPath id="8835a98888"><path d="M 927.015625 664.992188 L 1068.832031 664.992188 L 1068.832031 806.808594 L 927.015625 806.808594 Z M 927.015625 664.992188 " clip-rule="nonzero"/></clipPath><clipPath id="e0ba953186"><path d="M 997.921875 664.992188 C 958.761719 664.992188 927.015625 696.738281 927.015625 735.898438 C 927.015625 775.0625 958.761719 806.808594 997.921875 806.808594 C 1037.085938 806.808594 1068.832031 775.0625 1068.832031 735.898438 C 1068.832031 696.738281 1037.085938 664.992188 997.921875 664.992188 Z M 997.921875 664.992188 " clip-rule="nonzero"/></clipPath><clipPath id="5f1d6ae5d5"><path d="M 0.015625 0.992188 L 141.832031 0.992188 L 141.832031 142.808594 L 0.015625 142.808594 Z M 0.015625 0.992188 " clip-rule="nonzero"/></clipPath><clipPath id="63f48ba1f4"><path d="M 70.921875 0.992188 C 31.761719 0.992188 0.015625 32.738281 0.015625 71.898438 C 0.015625 111.0625 31.761719 142.808594 70.921875 142.808594 C 110.085938 142.808594 141.832031 111.0625 141.832031 71.898438 C 141.832031 32.738281 110.085938 0.992188 70.921875 0.992188 Z M 70.921875 0.992188 " clip-rule="nonzero"/></clipPath><clipPath id="59bb17f010"><rect x="0" width="142" y="0" height="143"/></clipPath></defs><g fill="#b88c3e" fill-opacity="1"><g transform="translate(216.114024, 771.899866)"><g><path d="M 12.265625 -17.375 L 12.265625 -55.125 C 12.265625 -58.3125 12.125 -60.890625 11.84375 -62.859375 C 11.570312 -64.835938 10.863281 -66.414062 9.71875 -67.59375 C 8.582031 -68.78125 6.625 -69.71875 3.84375 -70.40625 L 3.84375 -72.484375 L 29.84375 -72.484375 L 29.84375 -70.40625 C 27.144531 -69.71875 25.222656 -68.765625 24.078125 -67.546875 C 22.929688 -66.335938 22.234375 -64.742188 21.984375 -62.765625 C 21.742188 -60.785156 21.625 -58.238281 21.625 -55.125 L 21.625 -17.375 C 21.625 -14.175781 21.765625 -11.585938 22.046875 -9.609375 C 22.328125 -7.640625 23.054688 -6.066406 24.234375 -4.890625 C 25.410156 -3.710938 27.351562 -2.773438 30.0625 -2.078125 L 30.0625 0 L 4.0625 0 L 4.0625 -2.078125 C 6.832031 -2.773438 8.769531 -3.726562 9.875 -4.9375 C 10.988281 -6.15625 11.664062 -7.769531 11.90625 -9.78125 C 12.144531 -11.789062 12.265625 -14.320312 12.265625 -17.375 Z M 12.265625 -17.375 "/></g></g></g><g fill="#b88c3e" fill-opacity="1"><g transform="translate(250.223435, 771.899866)"><g><path d="M 50.234375 -34.421875 L 50.125 -13.828125 C 50.125 -11.265625 50.242188 -9.253906 50.484375 -7.796875 C 50.734375 -6.335938 51.34375 -5.191406 52.3125 -4.359375 C 53.28125 -3.535156 54.910156 -2.773438 57.203125 -2.078125 L 57.203125 0 L 34.421875 0 L 34.421875 -2.078125 C 36.566406 -2.773438 38.160156 -3.46875 39.203125 -4.15625 C 40.242188 -4.851562 40.9375 -5.925781 41.28125 -7.375 C 41.632812 -8.832031 41.8125 -10.984375 41.8125 -13.828125 L 41.8125 -30.265625 C 41.8125 -33.523438 41.617188 -36.316406 41.234375 -38.640625 C 40.847656 -40.960938 39.976562 -42.726562 38.625 -43.9375 C 37.28125 -45.15625 35.148438 -45.765625 32.234375 -45.765625 C 28.359375 -45.765625 23.507812 -43.925781 17.6875 -40.25 L 17.6875 -13.828125 C 17.6875 -11.265625 17.804688 -9.253906 18.046875 -7.796875 C 18.285156 -6.335938 18.890625 -5.191406 19.859375 -4.359375 C 20.828125 -3.535156 22.457031 -2.773438 24.75 -2.078125 L 24.75 0 L 1.96875 0 L 1.96875 -2.078125 C 4.125 -2.773438 5.71875 -3.46875 6.75 -4.15625 C 7.789062 -4.851562 8.484375 -5.925781 8.828125 -7.375 C 9.179688 -8.832031 9.359375 -10.984375 9.359375 -13.828125 L 9.359375 -37.953125 C 9.359375 -40.941406 8.664062 -43.078125 7.28125 -44.359375 C 5.894531 -45.640625 4.125 -46.382812 1.96875 -46.59375 L 1.96875 -48.671875 C 4.539062 -48.804688 7.144531 -49.097656 9.78125 -49.546875 C 12.414062 -50.003906 14.703125 -50.613281 16.640625 -51.375 L 18.296875 -49.921875 L 17.375 -43.0625 C 21.25 -45.894531 24.675781 -47.96875 27.65625 -49.28125 C 30.644531 -50.601562 33.628906 -51.265625 36.609375 -51.265625 C 45.691406 -51.265625 50.234375 -45.648438 50.234375 -34.421875 Z M 50.234375 -34.421875 "/></g></g></g><g fill="#b88c3e" fill-opacity="1"><g transform="translate(305.339138, 771.899866)"><g><path d="M 31.71875 -47.734375 L 31.71875 -49.8125 L 50.4375 -49.8125 L 50.4375 -47.734375 C 49.332031 -47.734375 48.328125 -47.226562 47.421875 -46.21875 C 46.523438 -45.21875 45.429688 -43.3125 44.140625 -40.5 C 42.859375 -37.695312 41.039062 -33.519531 38.6875 -27.96875 L 26.3125 1.25 L 22.78125 1.25 L 7.90625 -37.03125 C 6.582031 -40.488281 5.46875 -43.015625 4.5625 -44.609375 C 3.664062 -46.210938 2.285156 -47.253906 0.421875 -47.734375 L 0.421875 -49.8125 L 20.90625 -49.8125 L 20.90625 -47.734375 C 18.757812 -47.390625 17.21875 -46.4375 16.28125 -44.875 C 15.34375 -43.3125 15.460938 -40.898438 16.640625 -37.640625 L 27.359375 -8.625 L 34.9375 -27.96875 C 37.644531 -34.832031 38.769531 -39.84375 38.3125 -43 C 37.863281 -46.15625 35.664062 -47.734375 31.71875 -47.734375 Z M 31.71875 -47.734375 "/></g></g></g><g fill="#b88c3e" fill-opacity="1"><g transform="translate(354.111381, 771.899866)"><g><path d="M 30.890625 -4.0625 C 33.035156 -4.0625 35.425781 -4.390625 38.0625 -5.046875 C 40.695312 -5.703125 43.085938 -6.757812 45.234375 -8.21875 L 46.28125 -6.65625 C 42.257812 -3.46875 38.617188 -1.316406 35.359375 -0.203125 C 32.097656 0.898438 29.117188 1.453125 26.421875 1.453125 C 22.117188 1.453125 18.25 0.394531 14.8125 -1.71875 C 11.382812 -3.832031 8.679688 -6.757812 6.703125 -10.5 C 4.734375 -14.25 3.75 -18.617188 3.75 -23.609375 C 3.75 -29.015625 4.804688 -33.796875 6.921875 -37.953125 C 9.035156 -42.117188 11.84375 -45.378906 15.34375 -47.734375 C 18.84375 -50.085938 22.671875 -51.265625 26.828125 -51.265625 C 32.722656 -51.265625 37.472656 -49.394531 41.078125 -45.65625 C 44.679688 -41.914062 46.726562 -36.851562 47.21875 -30.46875 L 12.265625 -29.953125 L 12.265625 -27.765625 C 12.265625 -20.628906 13.84375 -14.894531 17 -10.5625 C 20.15625 -6.226562 24.785156 -4.0625 30.890625 -4.0625 Z M 25.375 -48.359375 C 21.5625 -48.359375 18.613281 -46.882812 16.53125 -43.9375 C 14.457031 -40.988281 13.140625 -37.265625 12.578125 -32.765625 L 37.859375 -33.28125 C 37.648438 -36.050781 37.078125 -38.5625 36.140625 -40.8125 C 35.203125 -43.070312 33.847656 -44.894531 32.078125 -46.28125 C 30.316406 -47.664062 28.082031 -48.359375 25.375 -48.359375 Z M 25.375 -48.359375 "/></g></g></g><g fill="#b88c3e" fill-opacity="1"><g transform="translate(404.859526, 771.899866)"><g><path d="M 18.09375 1.453125 C 13.789062 1.453125 9.25 0.515625 4.46875 -1.359375 L 3.4375 -14.96875 L 5.40625 -15.28125 C 7 -10.914062 8.867188 -7.519531 11.015625 -5.09375 C 13.171875 -2.664062 16.257812 -1.453125 20.28125 -1.453125 C 23.46875 -1.453125 26.097656 -2.351562 28.171875 -4.15625 C 30.253906 -5.957031 31.296875 -8.28125 31.296875 -11.125 C 31.296875 -13.476562 30.8125 -15.242188 29.84375 -16.421875 C 28.875 -17.609375 27.46875 -18.546875 25.625 -19.234375 C 23.789062 -19.929688 21.554688 -20.660156 18.921875 -21.421875 C 14.347656 -22.804688 10.878906 -24.570312 8.515625 -26.71875 C 6.160156 -28.875 4.984375 -32.03125 4.984375 -36.1875 C 4.984375 -39.03125 5.742188 -41.578125 7.265625 -43.828125 C 8.796875 -46.085938 10.945312 -47.890625 13.71875 -49.234375 C 16.5 -50.585938 19.726562 -51.265625 23.40625 -51.265625 C 25.207031 -51.265625 27.039062 -51.09375 28.90625 -50.75 C 30.78125 -50.40625 32.894531 -49.882812 35.25 -49.1875 L 36.5 -36.609375 L 34.734375 -36.296875 C 33.484375 -39.828125 31.765625 -42.703125 29.578125 -44.921875 C 27.398438 -47.140625 24.71875 -48.25 21.53125 -48.25 C 18.757812 -48.25 16.488281 -47.453125 14.71875 -45.859375 C 12.945312 -44.265625 12.0625 -42.359375 12.0625 -40.140625 C 12.0625 -37.921875 12.664062 -36.132812 13.875 -34.78125 C 15.09375 -33.4375 16.84375 -32.296875 19.125 -31.359375 C 21.414062 -30.421875 24.125 -29.46875 27.25 -28.5 C 31.132812 -27.320312 34.03125 -25.742188 35.9375 -23.765625 C 37.84375 -21.785156 38.796875 -19.0625 38.796875 -15.59375 C 38.796875 -12.40625 37.925781 -9.507812 36.1875 -6.90625 C 34.457031 -4.3125 32.050781 -2.269531 28.96875 -0.78125 C 25.882812 0.707031 22.257812 1.453125 18.09375 1.453125 Z M 18.09375 1.453125 "/></g></g></g><g fill="#b88c3e" fill-opacity="1"><g transform="translate(447.600287, 771.899866)"><g><path d="M 32.96875 -6.546875 L 34.109375 -4.46875 C 27.597656 -0.519531 22.363281 1.453125 18.40625 1.453125 C 14.59375 1.453125 11.941406 0.15625 10.453125 -2.4375 C 8.960938 -5.039062 8.21875 -8.976562 8.21875 -14.25 L 8.21875 -45.546875 L 2.078125 -45.546875 L 2.078125 -47.625 C 5.335938 -49.019531 8.039062 -50.738281 10.1875 -52.78125 C 12.34375 -54.820312 14.078125 -57.128906 15.390625 -59.703125 L 17.6875 -59.703125 L 16.75 -48.5625 L 30.890625 -49.40625 L 30.890625 -45.546875 L 16.53125 -45.546875 L 16.53125 -23.1875 C 16.53125 -18.332031 16.703125 -14.484375 17.046875 -11.640625 C 17.398438 -8.804688 18.128906 -6.796875 19.234375 -5.609375 C 20.347656 -4.429688 21.976562 -3.84375 24.125 -3.84375 C 25.300781 -3.84375 26.617188 -4.050781 28.078125 -4.46875 C 29.535156 -4.882812 31.164062 -5.578125 32.96875 -6.546875 Z M 32.96875 -6.546875 "/></g></g></g><g fill="#b88c3e" fill-opacity="1"><g transform="translate(480.357716, 771.899866)"><g><path d="M 28.28125 1.359375 C 23.363281 1.359375 19.03125 0.234375 15.28125 -2.015625 C 11.539062 -4.273438 8.628906 -7.363281 6.546875 -11.28125 C 4.472656 -15.195312 3.4375 -19.582031 3.4375 -24.4375 C 3.4375 -29.5 4.628906 -34.054688 7.015625 -38.109375 C 9.410156 -42.171875 12.566406 -45.378906 16.484375 -47.734375 C 20.398438 -50.085938 24.644531 -51.265625 29.21875 -51.265625 C 34.144531 -51.265625 38.460938 -50.140625 42.171875 -47.890625 C 45.878906 -45.640625 48.769531 -42.625 50.84375 -38.84375 C 52.925781 -35.0625 53.96875 -30.882812 53.96875 -26.3125 C 53.96875 -21.113281 52.820312 -16.429688 50.53125 -12.265625 C 48.25 -8.109375 45.179688 -4.796875 41.328125 -2.328125 C 37.484375 0.128906 33.132812 1.359375 28.28125 1.359375 Z M 30.578125 -1.765625 C 34.597656 -1.765625 37.992188 -3.253906 40.765625 -6.234375 C 43.535156 -9.222656 44.921875 -13.554688 44.921875 -19.234375 C 44.921875 -24.992188 44.175781 -30.054688 42.6875 -34.421875 C 41.195312 -38.785156 39.148438 -42.179688 36.546875 -44.609375 C 33.953125 -47.035156 30.988281 -48.25 27.65625 -48.25 C 23.363281 -48.25 19.8125 -46.707031 17 -43.625 C 14.195312 -40.539062 12.796875 -36.050781 12.796875 -30.15625 C 12.796875 -24.46875 13.539062 -19.492188 15.03125 -15.234375 C 16.519531 -10.972656 18.597656 -7.660156 21.265625 -5.296875 C 23.929688 -2.941406 27.035156 -1.765625 30.578125 -1.765625 Z M 30.578125 -1.765625 "/></g></g></g><g fill="#b88c3e" fill-opacity="1"><g transform="translate(537.657363, 771.899866)"><g><path d="M 33.703125 -51.0625 C 35.222656 -51.0625 36.625 -50.628906 37.90625 -49.765625 C 39.1875 -48.898438 39.828125 -47.566406 39.828125 -45.765625 C 39.828125 -44.441406 39.460938 -43.273438 38.734375 -42.265625 C 38.003906 -41.265625 37.050781 -40.765625 35.875 -40.765625 C 35.320312 -40.765625 34.679688 -41.023438 33.953125 -41.546875 C 33.222656 -42.066406 32.375 -42.585938 31.40625 -43.109375 C 30.4375 -43.628906 29.222656 -43.890625 27.765625 -43.890625 C 26.867188 -43.890625 25.46875 -43.578125 23.5625 -42.953125 C 21.65625 -42.328125 19.695312 -41.113281 17.6875 -39.3125 L 17.6875 -13.828125 C 17.6875 -11.265625 17.804688 -9.253906 18.046875 -7.796875 C 18.285156 -6.335938 18.890625 -5.191406 19.859375 -4.359375 C 20.828125 -3.535156 22.457031 -2.773438 24.75 -2.078125 L 24.75 0 L 1.96875 0 L 1.96875 -2.078125 C 4.125 -2.773438 5.71875 -3.46875 6.75 -4.15625 C 7.789062 -4.851562 8.484375 -5.925781 8.828125 -7.375 C 9.179688 -8.832031 9.359375 -10.984375 9.359375 -13.828125 L 9.359375 -37.953125 C 9.359375 -40.941406 8.664062 -43.078125 7.28125 -44.359375 C 5.894531 -45.640625 4.125 -46.382812 1.96875 -46.59375 L 1.96875 -48.671875 C 4.539062 -48.804688 7.144531 -49.097656 9.78125 -49.546875 C 12.414062 -50.003906 14.703125 -50.613281 16.640625 -51.375 L 18.296875 -49.921875 L 17.15625 -42.015625 C 19.582031 -44.234375 22.285156 -46.296875 25.265625 -48.203125 C 28.253906 -50.109375 31.066406 -51.0625 33.703125 -51.0625 Z M 33.703125 -51.0625 "/></g></g></g><g fill="#b88c3e" fill-opacity="1"><g transform="translate(580.398112, 771.899866)"><g><path d="M 9.046875 -48.046875 L 7.703125 -49.609375 C 8.804688 -50.648438 9.859375 -51.8125 10.859375 -53.09375 C 11.867188 -54.375 12.703125 -55.617188 13.359375 -56.828125 C 14.023438 -58.046875 14.320312 -59.035156 14.25 -59.796875 C 14.25 -60.421875 13.953125 -60.941406 13.359375 -61.359375 C 12.773438 -61.773438 12.117188 -62.191406 11.390625 -62.609375 C 10.660156 -63.023438 10.015625 -63.578125 9.453125 -64.265625 C 8.898438 -64.960938 8.625 -65.9375 8.625 -67.1875 C 8.625 -68.78125 9.226562 -70.113281 10.4375 -71.1875 C 11.65625 -72.257812 13.203125 -72.796875 15.078125 -72.796875 C 16.878906 -72.796875 18.367188 -72.257812 19.546875 -71.1875 C 20.722656 -70.113281 21.3125 -68.46875 21.3125 -66.25 C 21.3125 -64.238281 20.707031 -62.085938 19.5 -59.796875 C 18.289062 -57.515625 16.75 -55.332031 14.875 -53.25 C 13 -51.164062 11.054688 -49.429688 9.046875 -48.046875 Z M 9.046875 -48.046875 "/></g></g></g><g fill="#b88c3e" fill-opacity="1"><g transform="translate(609.3079, 771.899866)"><g><path d="M 18.09375 1.453125 C 13.789062 1.453125 9.25 0.515625 4.46875 -1.359375 L 3.4375 -14.96875 L 5.40625 -15.28125 C 7 -10.914062 8.867188 -7.519531 11.015625 -5.09375 C 13.171875 -2.664062 16.257812 -1.453125 20.28125 -1.453125 C 23.46875 -1.453125 26.097656 -2.351562 28.171875 -4.15625 C 30.253906 -5.957031 31.296875 -8.28125 31.296875 -11.125 C 31.296875 -13.476562 30.8125 -15.242188 29.84375 -16.421875 C 28.875 -17.609375 27.46875 -18.546875 25.625 -19.234375 C 23.789062 -19.929688 21.554688 -20.660156 18.921875 -21.421875 C 14.347656 -22.804688 10.878906 -24.570312 8.515625 -26.71875 C 6.160156 -28.875 4.984375 -32.03125 4.984375 -36.1875 C 4.984375 -39.03125 5.742188 -41.578125 7.265625 -43.828125 C 8.796875 -46.085938 10.945312 -47.890625 13.71875 -49.234375 C 16.5 -50.585938 19.726562 -51.265625 23.40625 -51.265625 C 25.207031 -51.265625 27.039062 -51.09375 28.90625 -50.75 C 30.78125 -50.40625 32.894531 -49.882812 35.25 -49.1875 L 36.5 -36.609375 L 34.734375 -36.296875 C 33.484375 -39.828125 31.765625 -42.703125 29.578125 -44.921875 C 27.398438 -47.140625 24.71875 -48.25 21.53125 -48.25 C 18.757812 -48.25 16.488281 -47.453125 14.71875 -45.859375 C 12.945312 -44.265625 12.0625 -42.359375 12.0625 -40.140625 C 12.0625 -37.921875 12.664062 -36.132812 13.875 -34.78125 C 15.09375 -33.4375 16.84375 -32.296875 19.125 -31.359375 C 21.414062 -30.421875 24.125 -29.46875 27.25 -28.5 C 31.132812 -27.320312 34.03125 -25.742188 35.9375 -23.765625 C 37.84375 -21.785156 38.796875 -19.0625 38.796875 -15.59375 C 38.796875 -12.40625 37.925781 -9.507812 36.1875 -6.90625 C 34.457031 -4.3125 32.050781 -2.269531 28.96875 -0.78125 C 25.882812 0.707031 22.257812 1.453125 18.09375 1.453125 Z M 18.09375 1.453125 "/></g></g></g><g fill="#b88c3e" fill-opacity="1"><g transform="translate(675.229422, 771.899866)"><g><path d="M 56.46875 -19.34375 L 58.34375 -18.609375 L 51.375 0 L 3.84375 0 L 3.84375 -2.078125 C 6.550781 -2.773438 8.476562 -3.726562 9.625 -4.9375 C 10.769531 -6.15625 11.460938 -7.769531 11.703125 -9.78125 C 11.941406 -11.789062 12.0625 -14.320312 12.0625 -17.375 L 12.0625 -55.125 C 12.0625 -58.3125 11.921875 -60.890625 11.640625 -62.859375 C 11.367188 -64.835938 10.660156 -66.414062 9.515625 -67.59375 C 8.367188 -68.78125 6.410156 -69.71875 3.640625 -70.40625 L 3.640625 -72.484375 L 29.640625 -72.484375 L 29.640625 -70.40625 C 26.929688 -69.71875 25.003906 -68.765625 23.859375 -67.546875 C 22.722656 -66.335938 22.03125 -64.742188 21.78125 -62.765625 C 21.539062 -60.785156 21.421875 -58.238281 21.421875 -55.125 L 21.421875 -3.328125 C 23.160156 -3.191406 24.632812 -3.085938 25.84375 -3.015625 C 27.050781 -2.941406 28.316406 -2.90625 29.640625 -2.90625 C 34.773438 -2.90625 39.539062 -4.066406 43.9375 -6.390625 C 48.34375 -8.710938 52.519531 -13.03125 56.46875 -19.34375 Z M 56.46875 -19.34375 "/></g></g></g><g fill="#b88c3e" fill-opacity="1"><g transform="translate(732.841046, 771.899866)"><g><path d="M 30.890625 -4.0625 C 33.035156 -4.0625 35.425781 -4.390625 38.0625 -5.046875 C 40.695312 -5.703125 43.085938 -6.757812 45.234375 -8.21875 L 46.28125 -6.65625 C 42.257812 -3.46875 38.617188 -1.316406 35.359375 -0.203125 C 32.097656 0.898438 29.117188 1.453125 26.421875 1.453125 C 22.117188 1.453125 18.25 0.394531 14.8125 -1.71875 C 11.382812 -3.832031 8.679688 -6.757812 6.703125 -10.5 C 4.734375 -14.25 3.75 -18.617188 3.75 -23.609375 C 3.75 -29.015625 4.804688 -33.796875 6.921875 -37.953125 C 9.035156 -42.117188 11.84375 -45.378906 15.34375 -47.734375 C 18.84375 -50.085938 22.671875 -51.265625 26.828125 -51.265625 C 32.722656 -51.265625 37.472656 -49.394531 41.078125 -45.65625 C 44.679688 -41.914062 46.726562 -36.851562 47.21875 -30.46875 L 12.265625 -29.953125 L 12.265625 -27.765625 C 12.265625 -20.628906 13.84375 -14.894531 17 -10.5625 C 20.15625 -6.226562 24.785156 -4.0625 30.890625 -4.0625 Z M 25.375 -48.359375 C 21.5625 -48.359375 18.613281 -46.882812 16.53125 -43.9375 C 14.457031 -40.988281 13.140625 -37.265625 12.578125 -32.765625 L 37.859375 -33.28125 C 37.648438 -36.050781 37.078125 -38.5625 36.140625 -40.8125 C 35.203125 -43.070312 33.847656 -44.894531 32.078125 -46.28125 C 30.316406 -47.664062 28.082031 -48.359375 25.375 -48.359375 Z M 25.375 -48.359375 "/></g></g></g><g fill="#b88c3e" fill-opacity="1"><g transform="translate(783.589192, 771.899866)"><g><path d="M 50.234375 -34.421875 L 50.125 -13.828125 C 50.125 -11.265625 50.242188 -9.253906 50.484375 -7.796875 C 50.734375 -6.335938 51.34375 -5.191406 52.3125 -4.359375 C 53.28125 -3.535156 54.910156 -2.773438 57.203125 -2.078125 L 57.203125 0 L 34.421875 0 L 34.421875 -2.078125 C 36.566406 -2.773438 38.160156 -3.46875 39.203125 -4.15625 C 40.242188 -4.851562 40.9375 -5.925781 41.28125 -7.375 C 41.632812 -8.832031 41.8125 -10.984375 41.8125 -13.828125 L 41.8125 -30.265625 C 41.8125 -33.523438 41.617188 -36.316406 41.234375 -38.640625 C 40.847656 -40.960938 39.976562 -42.726562 38.625 -43.9375 C 37.28125 -45.15625 35.148438 -45.765625 32.234375 -45.765625 C 28.359375 -45.765625 23.507812 -43.925781 17.6875 -40.25 L 17.6875 -13.828125 C 17.6875 -11.265625 17.804688 -9.253906 18.046875 -7.796875 C 18.285156 -6.335938 18.890625 -5.191406 19.859375 -4.359375 C 20.828125 -3.535156 22.457031 -2.773438 24.75 -2.078125 L 24.75 0 L 1.96875 0 L 1.96875 -2.078125 C 4.125 -2.773438 5.71875 -3.46875 6.75 -4.15625 C 7.789062 -4.851562 8.484375 -5.925781 8.828125 -7.375 C 9.179688 -8.832031 9.359375 -10.984375 9.359375 -13.828125 L 9.359375 -37.953125 C 9.359375 -40.941406 8.664062 -43.078125 7.28125 -44.359375 C 5.894531 -45.640625 4.125 -46.382812 1.96875 -46.59375 L 1.96875 -48.671875 C 4.539062 -48.804688 7.144531 -49.097656 9.78125 -49.546875 C 12.414062 -50.003906 14.703125 -50.613281 16.640625 -51.375 L 18.296875 -49.921875 L 17.375 -43.0625 C 21.25 -45.894531 24.675781 -47.96875 27.65625 -49.28125 C 30.644531 -50.601562 33.628906 -51.265625 36.609375 -51.265625 C 45.691406 -51.265625 50.234375 -45.648438 50.234375 -34.421875 Z M 50.234375 -34.421875 "/></g></g></g><g fill="#b88c3e" fill-opacity="1"><g transform="translate(842.344723, 771.899866)"><g><path d="M 18.09375 1.453125 C 13.789062 1.453125 9.25 0.515625 4.46875 -1.359375 L 3.4375 -14.96875 L 5.40625 -15.28125 C 7 -10.914062 8.867188 -7.519531 11.015625 -5.09375 C 13.171875 -2.664062 16.257812 -1.453125 20.28125 -1.453125 C 23.46875 -1.453125 26.097656 -2.351562 28.171875 -4.15625 C 30.253906 -5.957031 31.296875 -8.28125 31.296875 -11.125 C 31.296875 -13.476562 30.8125 -15.242188 29.84375 -16.421875 C 28.875 -17.609375 27.46875 -18.546875 25.625 -19.234375 C 23.789062 -19.929688 21.554688 -20.660156 18.921875 -21.421875 C 14.347656 -22.804688 10.878906 -24.570312 8.515625 -26.71875 C 6.160156 -28.875 4.984375 -32.03125 4.984375 -36.1875 C 4.984375 -39.03125 5.742188 -41.578125 7.265625 -43.828125 C 8.796875 -46.085938 10.945312 -47.890625 13.71875 -49.234375 C 16.5 -50.585938 19.726562 -51.265625 23.40625 -51.265625 C 25.207031 -51.265625 27.039062 -51.09375 28.90625 -50.75 C 30.78125 -50.40625 32.894531 -49.882812 35.25 -49.1875 L 36.5 -36.609375 L 34.734375 -36.296875 C 33.484375 -39.828125 31.765625 -42.703125 29.578125 -44.921875 C 27.398438 -47.140625 24.71875 -48.25 21.53125 -48.25 C 18.757812 -48.25 16.488281 -47.453125 14.71875 -45.859375 C 12.945312 -44.265625 12.0625 -42.359375 12.0625 -40.140625 C 12.0625 -37.921875 12.664062 -36.132812 13.875 -34.78125 C 15.09375 -33.4375 16.84375 -32.296875 19.125 -31.359375 C 21.414062 -30.421875 24.125 -29.46875 27.25 -28.5 C 31.132812 -27.320312 34.03125 -25.742188 35.9375 -23.765625 C 37.84375 -21.785156 38.796875 -19.0625 38.796875 -15.59375 C 38.796875 -12.40625 37.925781 -9.507812 36.1875 -6.90625 C 34.457031 -4.3125 32.050781 -2.269531 28.96875 -0.78125 C 25.882812 0.707031 22.257812 1.453125 18.09375 1.453125 Z M 18.09375 1.453125 "/></g></g></g><g clip-path="url(#3f3a0dcf04)"><g clip-path="url(#ea51efb956)"><g transform="matrix(1, 0, 0, 1, 912, 650)"><g clip-path="url(#19a0b88f48)"><g clip-path="url(#8c213f0767)"><g clip-path="url(#7647713b7c)"><path fill="#b88c3e" d="M 0.496094 0.472656 L 171.351562 0.472656 L 171.351562 171.328125 L 0.496094 171.328125 Z M 0.496094 0.472656 " fill-opacity="1" fill-rule="nonzero"/></g></g></g></g></g></g><path stroke-linecap="butt" transform="matrix(0.747366, -0.0628033, 0.0628033, 0.747366, 626.113227, 818.717717)" fill="none" stroke-linejoin="miter" d="M 1.675644 3.63362 C 415.407788 194.359968 611.983862 194.357258 591.398238 3.630244 " stroke="#b88c3e" stroke-width="8" stroke-opacity="1" stroke-miterlimit="4"/><path stroke-linecap="butt" transform="matrix(0.745123, -0.0853867, 0.0853867, 0.745123, 243.40866, 814.018974)" fill="none" stroke-linejoin="miter" d="M 1.803567 67.997154 C 170.474484 -17.33383 339.138947 -17.334689 507.806714 68.000935 " stroke="#b88c3e" stroke-width="8" stroke-opacity="1" stroke-miterlimit="4"/><g clip-path="url(#8835a98888)"><g clip-path="url(#e0ba953186)"><g transform="matrix(1, 0, 0, 1, 927, 664)"><g clip-path="url(#59bb17f010)"><g clip-path="url(#5f1d6ae5d5)"><g clip-path="url(#63f48ba1f4)"><path fill="#edfeff" d="M 0.015625 0.992188 L 141.832031 0.992188 L 141.832031 142.808594 L 0.015625 142.808594 Z M 0.015625 0.992188 " fill-opacity="1" fill-rule="nonzero"/></g></g></g></g></g></g></svg>